<svg xmlns="http://www.w3.org/2000/svg" viewBox="0 0 252.75 47.41"><defs><style>.cls-1{fill:#004268;}.cls-2{fill:#f57e20;}</style></defs><g id="Layer_2" data-name="Layer 2"><g id="Layer_1-2" data-name="Layer 1"><path class="cls-1" d="M163.09,47.29V42.18h2.85v.54h-2.13v1.71h1.79V45h-1.79v2.32Z"/><path class="cls-1" d="M168.85,47.29V42.18h.72v5.11Z"/><path class="cls-1" d="M172.86,47.29V42.18h.71l2.57,3.94V42.18h.62v5.11h-.71l-2.57-3.95v3.95Z"/><path class="cls-1" d="M183.41,47.29l-.56-1.42h-2.16l-.56,1.42h-.67l2-5.11h.72l2,5.11Zm-.77-2-.87-2.2-.87,2.2Z"/><path class="cls-1" d="M186.9,47.29V42.18h.71l2.57,3.94V42.18h.62v5.11h-.7l-2.58-3.95v3.95Z"/><path class="cls-1" d="M196.28,47.41a2.35,2.35,0,0,1-1.83-.7,2.74,2.74,0,0,1-.65-2,2.79,2.79,0,0,1,.66-2,2.43,2.43,0,0,1,1.86-.71,7,7,0,0,1,1.61.23V43a5.45,5.45,0,0,0-1.62-.36,1.57,1.57,0,0,0-1.29.56,2.46,2.46,0,0,0-.45,1.58,2.29,2.29,0,0,0,.48,1.54,1.67,1.67,0,0,0,1.33.57,3.27,3.27,0,0,0,1.55-.45V47A3.52,3.52,0,0,1,196.28,47.41Z"/><path class="cls-1" d="M201,47.29V42.18h.72v5.11Z"/><path class="cls-1" d="M208.32,47.29l-.55-1.42h-2.16l-.56,1.42h-.68l2-5.11h.71l2,5.11Zm-.76-2-.87-2.2-.87,2.2Z"/><path class="cls-1" d="M211.82,47.29V42.18h.73v4.56h2.29v.55Z"/><path class="cls-1" d="M225.61,47.15a6.28,6.28,0,0,1-1.62.26,2.42,2.42,0,0,1-1.86-.69,3.32,3.32,0,0,1,0-4,2.38,2.38,0,0,1,1.84-.71,5.89,5.89,0,0,1,1.62.24V43A5.38,5.38,0,0,0,224,42.6a1.55,1.55,0,0,0-1.29.56,2.46,2.46,0,0,0-.45,1.58,2.34,2.34,0,0,0,.48,1.57,1.76,1.76,0,0,0,1.38.56,2.54,2.54,0,0,0,.78-.13V45.08h.72Z"/><path class="cls-1" d="M228.86,47.29V42.18h1.54a1.71,1.71,0,0,1,1.13.33,1.15,1.15,0,0,1,.39.94,1.5,1.5,0,0,1-1,1.45l1.7,2.39h-.89l-1.45-2.16h-.68v2.16Zm.71-2.71h.24c.91,0,1.36-.35,1.36-1.07,0-.52-.38-.79-1.14-.79h-.46Z"/><path class="cls-1" d="M237.35,47.41a2.19,2.19,0,0,1-1.71-.73,3.27,3.27,0,0,1,0-3.9,2.43,2.43,0,0,1,3.47,0,2.83,2.83,0,0,1,.65,1.94,2.87,2.87,0,0,1-.65,2A2.27,2.27,0,0,1,237.35,47.41Zm0-.54a1.43,1.43,0,0,0,1.21-.56,2.57,2.57,0,0,0,.43-1.59,2.47,2.47,0,0,0-.43-1.56,1.53,1.53,0,0,0-2.37,0,2.53,2.53,0,0,0-.43,1.57,2.61,2.61,0,0,0,.42,1.57A1.4,1.4,0,0,0,237.36,46.87Z"/><path class="cls-1" d="M242.72,42.18h.72V45.4a1.75,1.75,0,0,0,.29,1.12,1.1,1.1,0,0,0,.9.35,1,1,0,0,0,.86-.33,1.85,1.85,0,0,0,.26-1.11V42.18h.63v3.24a2.23,2.23,0,0,1-.43,1.52,1.77,1.77,0,0,1-1.37.47,1.84,1.84,0,0,1-1.41-.49,2.21,2.21,0,0,1-.45-1.52Z"/><path class="cls-1" d="M249.63,47.29V42.18H251a2.26,2.26,0,0,1,1.33.31,1.22,1.22,0,0,1,.4,1,1.55,1.55,0,0,1-.55,1.27,2.31,2.31,0,0,1-1.53.47h-.32v2Zm.72-2.58h.29a1.51,1.51,0,0,0,1-.3,1,1,0,0,0,.35-.84.73.73,0,0,0-.28-.65,1.63,1.63,0,0,0-.92-.2h-.44Z"/><path class="cls-2" d="M.7,35.48C.05,35.16,0,35,0,33.7c0-2.34.19-4.22.23-5,.05-.51.14-.75.38-.75s.33.14.33.52a8.23,8.23,0,0,0,.14,1.73C1.78,33.7,4.87,35,8,35c4.49,0,6.7-3.23,6.7-6.23,0-3.24-1.36-5.11-5.39-8.44L7.22,18.61c-5-4.08-6.1-7-6.1-10.17,0-5,3.75-8.44,9.71-8.44a18.28,18.28,0,0,1,4.36.47A7.36,7.36,0,0,0,16.83.7c.37,0,.47.1.47.33s-.19,1.78-.19,5c0,.75-.1,1.08-.33,1.08s-.33-.24-.38-.61a7.77,7.77,0,0,0-.61-2.35c-.28-.51-1.54-2.48-5.85-2.48-3.24,0-5.77,2-5.77,5.44,0,2.67,1.22,4.36,5.72,7.87l1.31,1C16.73,20.34,18,23.25,18,27a9.69,9.69,0,0,1-4,7.78,12.3,12.3,0,0,1-7.08,2A14.19,14.19,0,0,1,.7,35.48Z"/><path class="cls-2" d="M33.27,3.62c.53-1.46.71-1.73,1-1.73s.45.22,1,1.6c.66,1.69,7.64,20,10.34,26.78,1.6,3.95,2.89,4.66,3.82,4.93a5.82,5.82,0,0,0,1.78.26c.27,0,.44,0,.44.27s-.4.35-.88.35c-.67,0-3.91,0-7-.08-.84,0-1.33,0-1.33-.31s.14-.27.31-.32.54-.48.27-1.2L38.86,23.25a.39.39,0,0,0-.4-.27H28.91c-.22,0-.35.14-.44.36L25.8,31.2a9.33,9.33,0,0,0-.62,3c0,.89.94,1.29,1.69,1.29h.44c.32,0,.45.09.45.27s-.27.35-.67.35c-1.06,0-3-.13-3.46-.13s-2.93.13-5,.13c-.58,0-.84-.08-.84-.35s.17-.27.4-.27a11.66,11.66,0,0,0,1.28-.09c2.05-.26,2.94-1.95,3.73-4.17Zm4.61,17.77c.23,0,.23-.14.18-.31l-4.22-12q-.33-1-.66,0l-3.91,12c-.09.22,0,.31.13.31Z"/><path class="cls-2" d="M56.18,15.39c0-6.93,0-8.17-.09-9.59s-.45-2.22-1.91-2.53a8.23,8.23,0,0,0-1.51-.14c-.18,0-.36-.09-.36-.26s.23-.36.72-.36c1,0,2.21,0,3.19.05L58,2.65c.89,0,9.91,0,10.93,0a8.91,8.91,0,0,0,2-.18c.27-.08.44-.26.62-.26s.27.18.27.4-.22.84-.36,2.08c0,.45-.13,2.4-.22,2.93,0,.23-.13.49-.35.49s-.32-.22-.32-.53a4.76,4.76,0,0,0-.4-1.69,3.39,3.39,0,0,0-3-1.42l-6.84-.13c-.27,0-.4.13-.4.49V17c0,.26,0,.39.31.39l5.68,0c.76,0,1.38,0,2,0,1.07-.09,1.64-.23,2-.8.18-.23.31-.45.49-.45s.22.14.22.36-.22,1-.35,2.48c-.09.89-.18,2.67-.18,3s0,.84-.31.84-.31-.17-.31-.4a7.86,7.86,0,0,0-.27-1.6,2.67,2.67,0,0,0-2.31-1.59C65.81,19,61,19,60.22,19c-.22,0-.31.09-.31.4v3.78c0,4.26,0,7.77.22,9.63.13,1.29.4,2.27,1.73,2.45.62.08,1.6.17,2,.17s.36.14.36.27-.23.35-.72.35c-2.44,0-5.23-.13-5.46-.13s-3,.13-4.35.13c-.49,0-.71-.08-.71-.35s.09-.27.36-.27a7.57,7.57,0,0,0,1.33-.17c.88-.18,1.11-1.16,1.28-2.45.23-1.86.23-5.37.23-9.63Z"/><path class="cls-2" d="M78.22,15.39c0-6.93,0-8.17-.09-9.59s-.44-2.22-1.91-2.53a8.15,8.15,0,0,0-1.51-.14c-.18,0-.35-.09-.35-.26s.22-.36.71-.36c1,0,2.22,0,3.19.05l1.82.09c.32,0,9.15,0,10.17,0a11.13,11.13,0,0,0,1.91-.22c.23,0,.4-.22.63-.22s.17.18.17.4-.22.84-.35,2.08c0,.45-.14,2.4-.22,2.93,0,.23-.14.49-.31.49s-.36-.22-.36-.57a4.59,4.59,0,0,0-.27-1.6c-.31-.71-.75-1.25-3.15-1.51-.75-.09-5.6-.13-6.08-.13-.18,0-.27.13-.27.44V17c0,.31,0,.44.27.44.57,0,6,0,7.06-.09s1.68-.18,2.08-.62.49-.58.67-.58.22.09.22.36-.22,1-.35,2.48c-.09.89-.18,2.54-.18,2.85s0,.84-.31.84-.31-.18-.31-.4a4.52,4.52,0,0,0-.18-1.47c-.18-.62-.58-1.37-2.31-1.55C87.41,19.08,83,19,82.26,19a.28.28,0,0,0-.31.31v3.91c0,1.51,0,6.66,0,7.59.13,3.06.8,3.64,5.15,3.64A12.65,12.65,0,0,0,91.36,34c1.16-.49,1.69-1.37,2-3.19.09-.49.18-.67.4-.67s.27.36.27.67-.36,3.37-.58,4.3c-.31,1.16-.66,1.16-2.4,1.16-3.33,0-5.77-.09-7.5-.14S80.75,36,80.08,36c-.08,0-.84,0-1.77,0s-1.91.08-2.58.08c-.49,0-.71-.08-.71-.35s.09-.27.36-.27a7.57,7.57,0,0,0,1.33-.17c.89-.18,1.11-1.16,1.29-2.45.22-1.86.22-5.37.22-9.63Z"/><path class="cls-1" d="M111.49,16.12c2.2-2.29,4.41-4.59,4.41-8.43,0-2.35-1.69-7-9.38-7-2.15,0-4,.14-5.11.14-.23,0-3.18-.14-5.29-.14-.52,0-.75.09-.75.37s.18.28.37.28a9.25,9.25,0,0,1,1.6.14c1.54.33,1.92,1.08,2,2.67s.1,2.82.1,10.13V22.5c0,4.5,0,8.2-.24,10.17-.19,1.36-.42,2.39-1.36,2.58a7.48,7.48,0,0,1-1.4.19c-.29,0-.38.14-.38.28s.23.37.75.37c.7,0,1.78-.09,2.72-.09s1.78,0,1.87,0,1.5,0,2.86.14,2.86.14,3.38.14c8,0,11.95-5.2,11.95-10.22C119.6,20.53,115,17.2,111.49,16.12ZM103.2,2.72c0-.28.14-.42.56-.51A10.33,10.33,0,0,1,106,2c4.59,0,6.32,4.17,6.32,8.06a7.3,7.3,0,0,1-1.68,4.74c-1,1.12-1.64,1.21-4.27,1.21a17.94,17.94,0,0,1-2.86-.18c-.23-.1-.32-.19-.32-.52Zm5.76,32a11,11,0,0,1-4.13-.7c-1.45-.7-1.45-1.36-1.59-3.66,0-.7,0-6.51,0-10.12V17.58c0-.24.09-.33.28-.33.7,0,3,0,3.65.09A7.8,7.8,0,0,1,111,18.7a11.24,11.24,0,0,1,4.55,9.38C115.57,33.37,111.49,34.73,109,34.73ZM173.18,9.58c.27,0,.66.43.92.28a12.46,12.46,0,0,0-1.39-.42c.14,0,.3.19.43.23S173.16,9.58,173.18,9.58Zm-.71,2c.13,0,.26,0,.32.14C172.86,11.49,172.38,11.51,172.47,11.57Zm1.51.71a.81.81,0,0,0-.72-.19A5.42,5.42,0,0,1,174,12.28Zm.35-.24c0-.11-.25-.14-.31-.1S174.24,12,174.33,12Zm-1.07-.28c.09.06.27,0,.32.14C173.59,11.74,173.3,11.69,173.26,11.76Zm-9.48,23.7c-.4,0-1.38-.09-2-.17-1.33-.18-1.6-1.16-1.73-2.45-.22-1.86-.22-5.37-.22-9.63V15.39c0-6.93,0-8.17.09-9.59s.44-2.31,1.64-2.53a6.38,6.38,0,0,1,1.11-.13c.18,0,.36-.09.36-.27s-.23-.36-.71-.36c-1.34,0-4.13.14-4.36.14s-3-.14-4.48-.14c-.49,0-.71.09-.71.36s.18.27.35.27a6,6,0,0,1,1.38.17c1,.23,1.42,1,1.51,2.49s.09,2.66.09,9.59v7.82c0,4.26,0,7.77-.22,9.63-.18,1.29-.4,2.27-1.29,2.45a7.57,7.57,0,0,1-1.33.17c-.27,0-.36.14-.36.27s.22.35.71.35c1.33,0,4.13-.13,4.35-.13s3,.13,5.47.13c.48,0,.71-.13.71-.35S164.05,35.46,163.78,35.46Zm-5.14,4.94a10.84,10.84,0,0,1-1.73-.13c-1.11-.18-3-.67-5.42-3.2-2.57-2.75-10.53-11.64-14.17-16.31,4-3.68,5.37-7,5.37-10.25a7.77,7.77,0,0,0-3.07-6c-2.35-1.69-5.32-2-8.12-2-1.38,0-4.75.14-5.24.14-.22,0-3-.14-5-.14-.49,0-.71.09-.71.36s.18.27.36.27a8.24,8.24,0,0,1,1.51.13c1.46.31,1.82,1,1.9,2.53s.09,2.66.09,9.59v7.82c0,4.26,0,7.77-.22,9.63-.18,1.29-.4,2.27-1.29,2.45a7.57,7.57,0,0,1-1.33.17c-.26,0-.35.14-.35.27s.22.35.71.35c1.33,0,4.13-.13,4.17-.13.22,0,3,.13,5.46.13.49,0,.71-.13.71-.35s-.09-.27-.35-.27-1.38-.09-2-.17c-1.33-.18-1.6-1.16-1.73-2.45C128,31,128,27.47,128,23.21V22.14c0-.22.08-.35.31-.35l5.46.08a.73.73,0,0,1,.58.27c.88,1.16,3,4.13,4.84,6.57,2.53,3.33,9,10.45,10.93,11.47,1.15.62,2.27.84,4.75.84H158c.79,0,1.06-.09,1.06-.35S158.86,40.4,158.64,40.4ZM136.25,19.66a5.83,5.83,0,0,1-3.33.84,12.21,12.21,0,0,1-4.66-.71.56.56,0,0,1-.31-.54V4.73a.54.54,0,0,1,.35-.53,13.77,13.77,0,0,1,3-.26c4.75,0,7.68,3.33,7.68,8.88C139,16.19,137.8,18.59,136.25,19.66ZM171.68,9.11c.41.15.63.22,1,.33A1.68,1.68,0,0,0,171.68,9.11Zm.32,2.27c0,.17.28.1.39.19C172.37,11.37,172.09,11.48,172,11.38Zm13.66,10.83a3.27,3.27,0,0,0,.43.52A2.85,2.85,0,0,0,185.66,22.21Zm-.75-.47a10.26,10.26,0,0,1,.71.89c0-.11-.21-.31-.32-.42S185,21.72,184.91,21.74Zm-2.38-4a3.74,3.74,0,0,0,.28.52C183.21,18.81,182.6,17.78,182.53,17.76Zm.16,3c.28.21.66.78.79.85C183.24,21.31,183,20.83,182.69,20.74Zm.16-2a2.51,2.51,0,0,0-.36-.57c.07.26.27.36.36.61S183,18.83,182.85,18.76Zm.64.47a31.83,31.83,0,0,0,2.13,2.84C185.53,22,183.44,19.13,183.49,19.23Zm67.94,10.86c-.22,0-.31.18-.4.67-.31,1.82-.84,2.7-2,3.19a12.65,12.65,0,0,1-4.26.49c-4.35,0-5-.58-5.15-3.64,0-.93,0-6.08,0-7.59V19.3a.28.28,0,0,1,.31-.31c.76,0,5.15.09,6.35.22,1.73.18,2.13.93,2.31,1.55a4.52,4.52,0,0,1,.18,1.47c0,.22.09.4.31.4s.31-.49.31-.84.09-2,.18-2.85c.13-1.46.35-2.22.35-2.48s-.09-.36-.22-.36-.35.22-.67.58-1,.53-2.08.62-6.49.09-7.06.09c-.22,0-.27-.13-.27-.44V4.69c0-.31.09-.44.27-.44.48,0,5.33,0,6.08.13,2.4.26,2.84.8,3.15,1.51a4.59,4.59,0,0,1,.27,1.6c0,.35.09.57.36.57s.26-.26.31-.48c.08-.54.17-2.49.22-2.94.13-1.24.35-1.77.35-2.08s0-.4-.17-.4-.4.18-.63.22a11.11,11.11,0,0,1-1.9.22c-1,0-9.86,0-10.17,0l-1.83-.09c-1-.05-2.17-.05-3.19-.05-.49,0-.71.09-.71.36s.18.27.35.27a8.16,8.16,0,0,1,1.51.13c1.47.31,1.82,1,1.91,2.53s.09,2.66.09,9.59v7.82c0,4.26,0,7.77-.22,9.63-.18,1.29-.4,2.27-1.29,2.45a7.57,7.57,0,0,1-1.33.17c-.27,0-.36.14-.36.27s.23.35.71.35c.67,0,1.69-.08,2.58-.08s1.69,0,1.78,0c.66,0,1.73,0,3.46.13s4.17.14,7.5.14c1.74,0,2.09,0,2.4-1.16.22-.93.58-4,.58-4.3S251.7,30.09,251.43,30.09Zm-64.81-8.48c-.06-.22-2.26-4.1-2.27-4.08C184.42,17.75,186.61,21.63,186.62,21.61Zm43.78-2.18c-1.33,0-4.13.14-4.35.14s-3-.14-5-.14c-.49,0-.71.09-.71.36s.18.26.36.26a8.23,8.23,0,0,1,1.51.14c1.77.48,2,1,2,4.57v7.55a1.6,1.6,0,0,1-.89,1.55,12.09,12.09,0,0,1-5.06.94,16.21,16.21,0,0,1-11.64-4.75,18.13,18.13,0,0,1-4.71-12.3c0-5.2,1.83-9.24,4.4-11.28a14.15,14.15,0,0,1,9.5-2.93c5.73,0,9.33,1.91,10.44,3.59a6.86,6.86,0,0,1,.93,2.93c.05.4.09.67.31.67s.4-.22.4-.93a56.47,56.47,0,0,1,.31-6.31c0-.18-.09-.35-.53-.4a22,22,0,0,1-3.6-.44,37.53,37.53,0,0,0-6.79-.76c-3.42,0-7.82.31-11.81,2.8S198,12.2,198,19.3A17.39,17.39,0,0,0,203.31,32c4.93,4.3,11.24,4.75,14.62,4.75a21.93,21.93,0,0,0,9.41-2c.53-.31.58-.4.58-2.4v-5c0-1.87,0-3.2.09-4.62s.44-2.31,1.64-2.53a6.61,6.61,0,0,1,1.11-.14c.17,0,.35-.08.35-.26S230.89,19.43,230.4,19.43Zm-55-16.71c-2.47,0-5.07.13-5.56.13-.21,0-2.8-.13-4.66-.13-.45,0-.66.08-.66.35a.3.3,0,0,0,.33.27,7.08,7.08,0,0,1,1.4.13c1.36.31,1.69,1,1.77,2.53s.09,2.67.09,9.6v7.81c0,4.27,0,7.77-.21,9.64-.16,1.29-.37,2.26-1.19,2.44a5.89,5.89,0,0,1-1.24.18c-.25,0-.33.13-.33.27s.21.35.66.35c.62,0,1.57-.09,2.39-.09s1.56,0,1.65,0,1.6.13,3.41.26,4,.27,5.73.27c7,0,10.71-3.11,12.48-5.11a19,19,0,0,0,4.44-12.52,16.54,16.54,0,0,0-4-11.28C187.05,2.32,179.51,2.72,175.44,2.72Zm.89,24.33a2,2,0,0,1-1.63-.2c0-.13.09-.22.34-.18-.16-.31-.69-.29-.95-.16h.16c-.82-.07-.66.51-.7,1.06,0,0-.05.07-.09.09h-.39c-.06-.14,0-.43-.08-.63h0a1,1,0,0,1,.18-.29c-.44-.07-.84.33-1.26.6l-.24,0c0-1.74,0-4.14,0-6.74,1.61.46,3.18.9,4.58,1.28-.17.31,0,.41.08.67a21,21,0,0,1,.12,2.88A7.47,7.47,0,0,1,176.33,27.05Zm1.26-8.24V17.5l0-.33.17-.44a.59.59,0,0,1,.22-.13.52.52,0,0,1,.18,0,.63.63,0,0,0,0,.43.7.7,0,0,0,.13-.42h.06l.2-.26c0,.92,0,1.87,0,2.85a1.35,1.35,0,0,0,.36.18c.12-.87,0-2.31.07-3.07.06,0,.12.13.16.31s0,2.24,0,2.82a1.81,1.81,0,0,0,.24.15c0-.77.05-2.66.05-2.72s0-.07,0-.11c0,.29,0,.94,0,1.07l0,1.48.05.4Zm3.16-2.8c-.11,1.24.1,3-.08,4.27l-.88-.42-.08-2.69v-.66l0-.44.26-.48.48-.08h.21A1.21,1.21,0,0,1,180.75,16Zm9.09,11.5a2.17,2.17,0,0,0-.61-.22H189a1,1,0,0,1,0-.24,6.31,6.31,0,0,0-1.31.44,1.28,1.28,0,0,1-.38,0c-.36-.11-.5-.17-.71-.12a1.33,1.33,0,0,1,0-.26c-.42.17-.66.52-1.08.6h-.45a.6.6,0,0,1-.55-.57,2.43,2.43,0,0,0-.45.13,2,2,0,0,0-.65-.29,1.09,1.09,0,0,1-.73.73h0l-.23-5.29.21.08c0,.41,0,.9,0,1.27a13.85,13.85,0,0,0,1.9.57c1.38.42,2.71,1.05,4,1.46.34.12.69.07,1,.29.14.11.18.34.39.38,0,.1-.07.06-.08.14A1.61,1.61,0,0,1,189.84,27.51Zm1.48-1.19c-.58-.36-1.27-.78-2-1.19l1.64.66h0l.11,0c.07.14.3.07.42.11A2,2,0,0,0,191.32,26.32Zm-1.09-1.48c.22-.2.38-.51.62-.55,0,.19-.13.27-.12.47-.17-.06-.27,0-.36.15Zm1-.13c.22,0,.23.38.23.7l-.16-.07h0c0-.12-.13-.07-.2-.06L191,25.2a1,1,0,0,1,.09-.39c-.11.1-.23.19-.33.27l-.33-.15a.25.25,0,0,1,.08-.12.25.25,0,0,1,.2.24,2.55,2.55,0,0,0,.79-.81.77.77,0,0,1-.31.49Zm.54.37a3.7,3.7,0,0,1,.06-.93c-.59-.12-1.16.2-1.87.09a2.61,2.61,0,0,1,.07.49l-1.8-.86c-.51-.54-.92-1.4-1.35-1.85a12.81,12.81,0,0,0,1.33,1.84l-5.75-2.74-.34-8c0,.07.09.15.16.18,0-.13-.14-.21-.24-.35l0-.06a.3.3,0,0,1,0-.16c.19,0,.17.27.32.33,0-.14-.25-.29-.32-.47s.08-.29,0-.52a1.32,1.32,0,0,1,.43.76c0,.06-.07,0-.08-.05s0,.22.08.24,0-.18.24-.15c0-.24-.27-.17-.28-.42s.13-.1.2-.14c-.14-.29-.41-.43-.52-.76-.13,0-.19.12-.35.09s-.37-.3-.32-.47a6,6,0,0,0-.95.47c0,.31.35.15.4.38-.25,0-.34.14-.56.14,0,0,0,0,0,0a.2.2,0,0,0,.08,0s0,0-.08,0a8.73,8.73,0,0,0-1,.44c-.08-.12-.26-.14-.28-.33a2.85,2.85,0,0,0-.79.42c0,.2.23.05.2.24-.14,0-.14.08,0,.05-.16.08-.29,0-.51,0,0,.11.22,0,.31.05-.37.15-1.05.77-1.23.19-.28.06-.41.29-.71.33.2.09.45-.16.71-.14a2.64,2.64,0,0,1-.67.23c0,.13.12.31.2.29s0,.2,0,.28v3.33c0,.17,0,.33-.08.6a.34.34,0,0,0,.08.09v0l-5-2.38V13.22c.13,0,.25.11.35,0-.07,0-.24,0-.35-.05V11.71a6.34,6.34,0,0,0,1.5.28c-.11,0-.3,0-.2-.14a1.05,1.05,0,0,1-.95-.24c-.08.13-.21.1-.35.05v-.33a1.83,1.83,0,0,1,.35.14c0-.17-.37-.19-.35-.15,0-2.49,0-4.88,0-5.89,0-.49.12-.72.49-.89a10.14,10.14,0,0,1,2.68-.31c4.9,0,9.59.62,13.46,5a16.52,16.52,0,0,1,4,11.19A21.69,21.69,0,0,1,191.74,25.08ZM172.51,13.32c-.49-.1-.13.21,0,0ZM174.14,10a1,1,0,0,1,.39.14C174.5,10,174.23,9.86,174.14,10Zm-1,3.54a10.66,10.66,0,0,1,1.32.24A2.27,2.27,0,0,0,173.09,13.5Zm.17-1.89c-.07.07-.26,0-.31.1.12,0,.15.07.23.09A1.54,1.54,0,0,0,173.26,11.61ZM175,10.15c-.12,0-.41-.17-.36-.05S174.92,10.34,175,10.15Zm-2,3.26c-.46-.11-.52.1,0,0Zm1.74.33a1.16,1.16,0,0,0,.69.1C175.32,13.81,174.87,13.64,174.73,13.74ZM183.36,19c-.12-.07-.2-.43-.32-.34C183.17,18.67,183.25,19,183.36,19Zm-3-6.91a53.18,53.18,0,0,0-5.28-1.8C175.17,10.27,180.24,12,180.33,12Zm3.94,5.25a10.62,10.62,0,0,0-.83-1.51,10.91,10.91,0,0,0-.83-1.52c.41.86.91,1.71,1.34,2.51C184,16.89,184.38,17.6,184.27,17.29Zm-9.5-4.87c.2.1,2.66.46,2.88.57A16.09,16.09,0,0,0,174.77,12.42Z"/></g></g></svg>